- 
http://www.Speed.Cd      fast  and The Hottest Private Tracker on the net

   signup is open now

Please Seed back to make the speed Faster!!!

------------------nfo--------------------------
-UUUUUUUU     UUUUUUUU           SSSSSSSSSSSSSSS         MMMMMMMM               MMMMMMMM     
U::::::U     U::::::U         SS:::::::::::::::S        M:::::::M             M:::::::M     
U::::::U     U::::::U        S:::::SSSSSS::::::S        M::::::::M           M::::::::M     
UU:::::U     U:::::UU        S:::::S     SSSSSSS        M:::::::::M         M:::::::::M     
 U:::::U     U:::::U         S:::::S                    M::::::::::M       M::::::::::M     
 U:::::D     D:::::U         S:::::S                    M:::::::::::M     M:::::::::::M     
 U:::::D     D:::::U          S::::SSSS                 M:::::::M::::M   M::::M:::::::M     
 U:::::D     D:::::U           SS::::::SSSSS            M::::::M M::::M M::::M M::::::M     
 U:::::D     D:::::U             SSS::::::::SS          M::::::M  M::::M::::M  M::::::M     
 U:::::D     D:::::U                SSSSSS::::S         M::::::M   M:::::::M   M::::::M     
 U:::::D     D:::::U                     S:::::S        M::::::M    M:::::M    M::::::M     
 U::::::U   U::::::U                     S:::::S        M::::::M     MMMMM     M::::::M     
 U:::::::UUU:::::::U         SSSSSSS     S:::::S        M::::::M               M::::::M     
  UU:::::::::::::UU   ...... S::::::SSSSSS:::::S ...... M::::::M               M::::::M     
    UU:::::::::UU     .::::. S:::::::::::::::SS  .::::. M::::::M               M::::::M     
      UUUUUUUUU       ......  SSSSSSSSSSSSSSS    ...... MMMMMMMM               MMMMMMMM   



                         11-11-11 2011 DVDRiP AC3 5.1 XViD - U.S.M


SOURCES:

11-11-11 2011 rental pal iso

IMDB:
 
http://www.imdb.com/title/tt1712159/

Video
ID                               : 0
Format                           : MPEG-4 Visual
Format profile                   : Advanced Simple@L5
Format settings, BVOP            : 2
Format settings, QPel            : No
Format settings, GMC             : No warppoints
Format settings, Matrix          : Default (MPEG)
Muxing mode                      : Packed bitstream
Codec ID                         : XVID
Codec ID/Hint                    : XviD
Duration                         : 1h 32mn
Bit rate                         : 1 673 Kbps
Width                            : 720 pixels
Height                           : 304 pixels
Display aspect ratio             : 2.35:1
Frame rate                       : 25.000 fps
Color space                      : YUV
Chroma subsampling               : 4:2:0
Bit depth                        : 8 bits
Scan type                        : Progressive
Compression mode                 : Lossy
Bits/(Pixel*Frame)               : 0.306
Stream size                      : 1.09 GiB (79%)
Writing library                  : XviD 64

Audio
ID                               : 1
Format                           : AC-3
Format/Info                      : Audio Coding 3
Mode extension                   : CM (complete main)
Codec ID                         : 2000
Duration                         : 1h 32mn
Bit rate mode                    : Constant
Bit rate                         : 448 Kbps
Channel(s)                       : 6 channels
Channel positions                : Front: L C R, Side: L R, LFE
Sampling rate                    : 48.0 KHz
Bit depth                        : 16 bits
Compression mode                 : Lossy
Stream size                      : 298 MiB (21%)
Alignment                        : Aligned on interleaves
Interleave, duration             : 40 ms (1.00 video frame)
Interleave, preload duration     : 512 ms



WORKDONE:

Ok late to the party with this one,but hey ho ...save the best til last :lol:
Right for this i made a script via megui and then used the crop,sharpen,chroma,brightness
and contrast options in my script.
Now never alter the rgb colours and i personally think there fine and how they should be ,yes
theres parts that seem too be "dull,pale and grey looking"...but then theres other parts that seems
balance correctly so i can only guess its made this way and doesn't need fixing IMHO.
Audio i just stripped the DD5.1 track and remuxed .....
Now for the tagging ...the iso was called a rental pal iso,so if thats the case then surely its a dvdrip??
Anyway too me it looks more like a BRRiP now :P
Check sample for Q


SCREENIES:

[IMG]http://i.imgur.com/Ftbog.png[/IMG]
[IMG]http://i.imgur.com/MR2XQ.png[/IMG]
[IMG]http://i.imgur.com/Y1LVb.png[/IMG]
[IMG]http://i.imgur.com/XOkjz.png[/IMG]
[IMG]http://i.imgur.com/XBCXB.png[/IMG]